<?xml version="1.0" standalone="no"?>
<!DOCTYPE svg PUBLIC "-//W3C//DTD SVG 20010904//EN"
 "http://www.w3.org/TR/2001/REC-SVG-20010904/DTD/svg10.dtd">
<svg version="1.0" xmlns="http://www.w3.org/2000/svg"
 width="1280.000000pt" height="1280.000000pt" viewBox="0 0 1280.000000 1280.000000"
 preserveAspectRatio="xMidYMid meet">
<metadata>
Created by potrace 1.15, written by Peter Selinger 2001-2017
</metadata>
<g transform="translate(0.000000,1280.000000) scale(0.100000,-0.100000)"
fill="#000000" stroke="none">
<path d="M7680 11790 c-271 -48 -572 -170 -815 -330 -140 -93 -236 -172 -346
-288 -263 -274 -445 -595 -602 -1062 -99 -295 -191 -702 -208 -921 l-12 -147
-36 15 c-347 145 -654 273 -656 273 -2 0 -15 -21 -30 -46 -33 -57 -42 -52 -16
10 11 25 17 46 12 46 -4 0 -18 -26 -31 -57 -26 -66 -50 -95 -100 -125 -82 -49
-193 -182 -270 -323 -15 -27 -39 -70 -53 -95 -47 -85 -124 -285 -146 -380 -12
-52 -26 -108 -30 -125 -5 -16 -15 -61 -21 -100 -11 -66 -43 -148 -111 -290
-44 -93 -69 -175 -69 -226 0 -60 -19 -103 -69 -159 -23 -25 -41 -48 -41 -51 0
-4 -39 -20 -87 -38 -79 -28 -97 -39 -170 -108 -45 -43 -109 -112 -143 -153
-34 -41 -76 -93 -95 -115 -89 -105 -345 -462 -345 -481 0 -3 -13 -24 -29 -47
-35 -52 -54 -84 -154 -267 -43 -80 -92 -166 -108 -193 -16 -26 -29 -50 -29
-53 0 -3 -20 -37 -45 -75 -25 -38 -45 -72 -45 -75 0 -6 -53 -88 -61 -94 -4 -3
-24 -36 -44 -75 -21 -38 -45 -81 -54 -95 -9 -14 -47 -86 -83 -160 -84 -170
-140 -305 -163 -390 0 -3 -9 -32 -20 -65 -10 -33 -19 -62 -20 -65 -1 -3 -7
-25 -14 -50 -6 -25 -16 -54 -21 -65 -11 -23 -36 -124 -45 -175 -3 -19 -8 -47
-11 -63 -3 -15 -1 -27 4 -27 5 0 10 11 10 24 0 13 7 46 17 75 15 45 19 50 36
41 10 -6 19 -16 19 -23 0 -7 -4 -6 -10 3 -6 9 -10 10 -10 3 0 -6 4 -14 9 -17
5 -3 7 -27 4 -53 -2 -27 -5 -68 -7 -93 -1 -25 -8 -64 -15 -88 -7 -24 -9 -53
-6 -65 5 -17 4 -19 -4 -7 -9 12 -11 11 -11 -7 0 -12 -5 -25 -11 -28 -6 -4 -8
-13 -5 -20 2 -7 -5 -21 -16 -32 l-21 -18 5 125 c4 80 3 111 -3 85 -12 -59 -11
-263 2 -325 35 -168 178 -325 434 -476 44 -25 103 -62 132 -80 29 -19 90 -54
137 -79 47 -25 122 -66 168 -93 46 -26 144 -78 218 -116 74 -37 160 -83 191
-102 31 -19 59 -34 62 -34 9 0 199 -91 433 -206 116 -57 214 -104 218 -104 4
0 35 -14 69 -31 167 -83 405 -166 505 -175 37 -3 93 -1 124 5 74 13 215 80
329 155 21 14 57 38 79 53 23 14 64 54 92 87 29 34 71 81 94 106 26 28 55 75
75 124 18 43 37 80 43 82 6 2 64 -18 129 -46 152 -64 218 -78 282 -60 149 42
333 251 488 555 11 22 28 51 38 65 16 24 160 362 172 405 3 11 17 61 32 110
55 189 66 260 72 465 3 148 1 219 -11 295 -30 194 -120 635 -136 665 -4 8 -17
69 -29 135 -11 66 -25 138 -31 160 -6 22 -17 72 -25 110 -13 59 -53 167 -110
300 -24 56 -24 65 -5 109 10 24 21 59 24 76 9 59 53 134 88 150 21 9 40 29 51
53 9 20 19 37 22 37 9 0 34 -72 45 -128 14 -80 15 -84 50 -207 18 -60 42 -158
55 -216 13 -58 30 -120 39 -138 9 -17 30 -82 46 -144 15 -62 40 -152 55 -202
14 -49 40 -137 56 -195 17 -58 37 -127 45 -155 9 -27 18 -59 21 -70 2 -11 16
-47 30 -80 19 -49 33 -66 66 -87 44 -27 49 -35 98 -188 13 -41 22 -82 21 -90
-2 -8 -28 -76 -59 -150 -30 -74 -61 -164 -68 -200 -8 -36 -19 -83 -25 -105 -6
-22 -19 -92 -30 -156 -11 -64 -25 -130 -31 -145 -22 -59 -121 -552 -139 -697
-26 -203 -1 -523 53 -687 8 -25 23 -72 32 -105 19 -71 161 -419 185 -455 9
-14 38 -65 63 -113 61 -115 176 -281 248 -358 53 -55 120 -106 172 -128 88
-38 147 -30 313 40 64 27 124 49 133 49 12 0 27 -24 49 -77 32 -77 62 -119
177 -242 82 -87 265 -205 414 -265 128 -52 284 -31 531 69 91 37 428 192 470
216 38 21 167 84 270 131 87 41 263 128 275 138 6 4 53 30 105 56 52 26 151
79 220 117 69 38 148 82 175 96 84 46 149 83 175 101 14 10 47 30 75 46 27 15
74 43 104 63 29 20 65 42 79 50 47 26 201 183 231 236 54 95 71 167 72 295 1
121 -8 210 -21 210 -4 0 -3 -26 2 -57 5 -31 8 -84 6 -117 -3 -57 -4 -59 -21
-42 -9 10 -15 21 -12 26 3 5 1 11 -5 15 -5 3 -10 15 -10 26 0 11 -4 18 -9 15
-5 -4 -7 2 -4 13 2 10 -1 38 -8 62 -7 24 -14 78 -15 119 -3 97 -2 92 -15 84
-6 -3 -3 6 7 22 11 15 13 25 7 21 -7 -5 -13 -4 -13 0 0 5 9 14 19 20 20 12 25
7 37 -42 11 -42 22 -68 23 -51 1 24 -39 198 -49 211 -4 6 -10 24 -14 40 -4 17
-19 68 -34 115 -14 47 -27 87 -27 90 -12 48 -22 77 -47 140 -32 80 -111 252
-130 285 -7 11 -26 47 -43 80 -38 73 -98 174 -211 360 -97 160 -132 221 -184
320 -162 309 -354 596 -583 870 -219 262 -264 300 -404 345 -30 9 -55 28 -85
63 -58 69 -78 113 -78 169 0 48 -30 154 -54 193 -7 11 -27 56 -46 100 -18 44
-41 96 -51 115 -11 19 -19 45 -19 58 0 13 -9 63 -20 110 -12 48 -30 125 -41
172 -17 73 -108 315 -130 345 -4 6 -24 42 -44 80 -21 39 -50 88 -64 110 -14
22 -31 51 -38 64 -25 46 -115 140 -166 174 -79 53 -100 77 -127 145 -14 34
-28 62 -32 62 -5 0 -1 -17 8 -37 9 -21 18 -44 21 -50 12 -29 -9 -10 -35 31
-23 36 -31 42 -46 34 -10 -5 -20 -7 -23 -5 -3 3 33 174 80 379 109 475 111
487 147 768 73 577 98 863 106 1220 17 687 -90 1124 -334 1368 -139 139 -329
232 -547 267 -128 21 -391 18 -525 -5z m555 -299 c241 -63 387 -205 469 -456
100 -308 116 -775 50 -1470 -18 -193 -79 -693 -99 -823 -20 -125 -243 -1096
-253 -1100 -4 -1 -378 -157 -832 -347 -453 -189 -826 -343 -827 -341 -2 1 2
18 8 37 5 19 12 41 14 49 2 8 16 56 30 105 15 50 46 162 70 250 23 88 52 180
63 205 11 25 28 86 36 135 9 50 24 113 34 140 10 28 28 91 40 140 48 196 60
250 57 254 -8 8 -32 -69 -44 -138 -8 -41 -20 -88 -28 -105 -14 -30 -14 -29 -8
24 4 30 9 80 12 110 3 30 9 62 13 70 4 8 11 36 14 63 4 26 11 47 15 47 13 0
31 -24 31 -42 0 -10 4 -18 10 -18 10 0 25 53 33 116 l5 42 -619 257 c-340 142
-619 259 -619 260 0 0 18 54 40 119 22 65 64 230 95 366 174 780 375 1220 708
1551 269 268 667 466 1040 519 106 15 351 4 442 -19z m-3156 -2568 c-3 -31 1
-38 12 -23 8 12 9 11 5 -5 -7 -25 42 -54 56 -32 6 9 8 9 8 -1 0 -8 5 -10 13
-6 10 6 10 4 0 -7 -7 -7 -13 -20 -13 -28 0 -14 2 -14 10 -1 5 8 12 11 16 7 4
-3 1 -13 -6 -22 -7 -8 -8 -15 -3 -15 5 0 9 -18 9 -40 0 -27 -5 -40 -14 -40 -9
0 -12 -7 -9 -20 3 -11 1 -20 -3 -20 -5 0 -4 -15 1 -32 5 -18 9 -34 9 -35 0 -2
-10 -3 -22 -3 -19 0 -20 2 -8 10 20 13 0 46 -26 42 -16 -2 -17 -1 -4 8 12 9
12 13 2 17 -9 3 -10 9 -3 17 8 10 3 11 -19 8 -31 -4 -36 1 -44 50 -2 15 0 28
6 30 8 3 7 11 -1 26 -6 12 -8 22 -2 22 5 0 11 7 14 14 4 10 1 13 -9 9 -9 -3
-14 2 -14 17 0 13 -4 19 -11 14 -7 -4 -9 2 -7 17 2 14 10 24 20 24 9 0 20 4
24 8 12 11 15 8 13 -10z m-101 -122 c3 -8 0 -11 -7 -7 -6 4 -11 3 -11 -3 0 -6
-8 -7 -17 -4 -15 6 -16 4 -5 -9 10 -13 10 -17 0 -20 -20 -8 -37 2 -31 18 3 8
0 14 -6 14 -8 0 -8 4 1 14 16 17 70 15 76 -3z m32 -135 c-6 -9 -19 -12 -28 -8
-17 6 -14 7 37 21 2 1 -2 -5 -9 -13z m101 -64 c-7 -2 -18 1 -23 6 -8 8 -4 9
13 5 13 -4 18 -8 10 -11z m-101 -143 c0 -5 6 -6 13 -3 19 7 49 -31 45 -58 -2
-13 4 -29 12 -36 13 -12 13 -13 -3 -8 -13 4 -16 2 -10 -7 4 -6 8 -32 9 -57 1
-25 0 -37 -3 -27 -2 9 -9 15 -14 11 -6 -3 -16 0 -24 6 -11 9 -15 9 -15 1 0 -6
-10 -9 -22 -7 -13 1 -23 7 -23 12 0 5 -4 15 -9 23 -7 11 -5 13 7 8 16 -6 16
-4 2 23 -9 17 -20 30 -26 30 -6 0 -3 -7 6 -16 9 -9 13 -19 9 -23 -4 -3 -9 -1
-11 6 -2 7 -11 9 -20 6 -13 -5 -15 -2 -11 15 6 20 3 22 -26 19 -38 -4 -59 13
-39 31 8 8 13 9 13 2 0 -14 18 -13 23 3 2 6 3 4 2 -5 -3 -14 4 -18 30 -18 28
0 32 3 28 20 -3 11 -10 23 -16 27 -5 3 -7 1 -3 -5 3 -6 2 -13 -3 -16 -15 -9
-21 22 -7 36 14 14 86 20 86 7z m-183 -20 c-8 -14 -14 -15 -25 -7 -14 12 -3
25 22 25 11 0 12 -4 3 -18z m199 -196 c-10 -10 -19 5 -10 18 6 11 8 11 12 0 2
-7 1 -15 -2 -18z m-345 -165 c6 -15 9 -39 7 -53 -6 -28 8 -35 15 -7 3 12 5 9
6 -8 2 -25 2 -25 16 5 7 17 14 24 14 17 1 -7 -4 -23 -10 -35 -9 -15 -9 -22 -1
-25 6 -2 8 -10 5 -18 -3 -8 -1 -14 5 -14 6 0 15 12 21 28 10 26 10 26 8 2 -2
-14 -9 -36 -16 -49 -11 -19 -11 -25 0 -33 11 -8 10 -9 -3 -5 -9 3 -19 1 -22
-6 -2 -7 -5 -4 -5 6 -1 9 -5 17 -11 17 -5 0 -10 9 -10 20 0 11 -5 20 -11 20
-5 0 -7 5 -4 10 3 6 1 10 -5 10 -6 0 -18 7 -27 16 -14 14 -14 16 3 29 15 11
16 15 4 15 -8 1 -30 3 -48 5 -27 2 -35 -1 -42 -21 -5 -13 -17 -24 -27 -24 -14
0 -15 -2 -5 -9 11 -6 10 -10 -3 -15 -15 -5 -17 -2 -11 24 3 19 2 29 -4 25 -6
-3 -10 1 -10 9 0 9 4 16 9 16 4 0 12 15 17 33 20 69 118 79 145 15z m99 4 c0
-10 3 -13 8 -7 4 6 14 11 24 13 12 2 15 -3 11 -17 -3 -11 0 -28 6 -38 10 -16
11 -14 9 11 -2 17 2 31 9 33 16 6 5 -56 -13 -74 -16 -17 -37 7 -28 33 3 12 3
14 -3 7 -12 -16 -45 -20 -50 -5 -3 8 1 10 14 5 15 -6 16 -4 6 8 -7 8 -11 25
-10 36 1 25 17 20 17 -5z m-37 -4 c4 -12 -20 -37 -35 -38 -5 0 -8 11 -8 25 0
18 5 25 19 25 11 0 21 -6 24 -12z m-113 -83 c0 -19 -9 -19 -34 0 -19 14 -19
15 7 15 17 0 27 -5 27 -15z m0 -46 c0 -6 -4 -7 -10 -4 -5 3 -10 11 -10 16 0 6
5 7 10 4 6 -3 10 -11 10 -16z m-67 -81 c-2 -4 4 -5 14 -1 16 6 16 5 4 -10 -8
-10 -10 -24 -5 -34 15 -35 15 -82 0 -110 -10 -18 -15 -22 -16 -11 0 9 -5 18
-10 20 -6 2 -12 30 -13 63 -2 33 -5 65 -6 70 -2 6 -3 28 -2 50 l1 40 19 -35
c10 -19 17 -38 14 -42z m240 25 c-4 -11 -3 -14 5 -9 9 5 9 0 2 -19 -12 -32
-12 -38 -1 -31 5 4 5 -9 -1 -27 -6 -19 -16 -34 -24 -34 -10 0 -10 5 -3 20 14
24 21 79 10 72 -12 -7 -8 28 4 37 14 11 15 10 8 -9z m-323 -278 c11 -13 10
-14 -4 -9 -9 3 -16 10 -16 15 0 13 6 11 20 -6z m-66 -66 c-8 -14 -34 2 -49 32
-22 42 -19 43 20 8 19 -18 32 -35 29 -40z m101 23 c-3 -3 -11 0 -18 7 -9 10
-8 11 6 5 10 -3 15 -9 12 -12z m-69 -85 c5 -4 -8 -7 -29 -5 -20 1 -37 5 -37 9
0 9 57 6 66 -4z m-246 -7 c0 -5 -2 -10 -4 -10 -3 0 -8 5 -11 10 -3 6 -1 10 4
10 6 0 11 -4 11 -10z m4549 -78 c7 2 18 -5 24 -15 10 -15 9 -20 -5 -28 -11 -6
-15 -16 -11 -26 4 -11 3 -14 -5 -9 -7 4 -12 1 -12 -8 0 -8 -6 -17 -12 -20 -7
-3 -2 -3 12 0 20 5 23 4 13 -7 -15 -15 -18 -43 -4 -35 4 3 7 -9 5 -27 -7 -55
-11 -60 -46 -53 -25 5 -30 4 -21 -5 10 -10 7 -18 -13 -36 -29 -27 -39 -29 -31
-8 4 8 2 17 -3 20 -13 8 -1 35 16 35 8 0 14 5 14 10 0 7 -6 7 -19 0 -32 -17
-38 -12 -37 30 1 22 5 40 10 40 4 0 6 7 2 15 -3 8 -1 15 5 15 6 0 8 7 5 16 -8
22 3 38 17 25 16 -12 61 24 51 40 -4 8 -3 9 4 5 8 -5 12 2 12 21 0 19 3 24 9
15 4 -7 13 -12 20 -10z m-1943 -139 c-15 -27 -15 -27 -16 -5 0 13 5 33 12 45
10 19 13 19 16 5 2 -9 -4 -29 -12 -45z m2060 26 c4 -8 9 -7 15 2 7 11 9 10 9
-3 0 -10 6 -18 13 -19 9 0 9 -2 0 -5 -7 -3 -9 -12 -6 -20 4 -10 -3 -14 -23
-14 -22 0 -25 3 -16 12 17 17 15 33 -3 18 -12 -10 -15 -9 -15 6 0 16 -2 17
-10 4 -5 -8 -10 -10 -10 -4 0 12 20 34 31 34 4 0 11 -5 15 -11z m-2089 -116
c-6 -27 -13 -50 -16 -53 -4 -3 -8 -14 -9 -25 -2 -11 -8 -24 -13 -29 -13 -14
-12 21 2 46 6 11 13 32 15 46 7 43 15 62 23 62 5 0 3 -21 -2 -47z m2049 -35
c-9 -5 -23 -5 -32 0 -12 6 -7 9 16 9 23 0 28 -3 16 -9z m-159 -53 c0 -6 -9
-12 -19 -12 -17 -2 -24 8 -13 19 9 9 32 5 32 -7z m43 -5 c-8 -5 -19 -10 -25
-10 -5 0 -3 5 5 10 8 5 20 10 25 10 6 0 3 -5 -5 -10z m-1977 -82 c-5 -45 -19
-71 -33 -63 -5 3 -2 17 5 32 8 15 12 30 9 35 -7 12 3 38 14 38 5 0 7 -19 5
-42z m-393 -18 c0 -5 -2 -10 -4 -10 -3 0 -8 5 -11 10 -3 6 -1 10 4 10 6 0 11
-4 11 -10z m2475 -40 c4 -6 20 -9 36 -6 25 4 28 2 18 -10 -6 -7 -14 -12 -18
-10 -3 2 -6 -9 -7 -25 -1 -17 4 -29 11 -29 7 0 16 -7 19 -16 8 -22 8 -24 -8
-24 -7 0 -21 -11 -30 -25 -11 -16 -12 -25 -5 -25 8 0 8 -4 -1 -14 -6 -8 -18
-12 -26 -9 -8 3 -14 -1 -14 -10 0 -9 -5 -19 -11 -23 -8 -4 -9 4 -4 27 6 28 5
32 -6 23 -21 -17 -51 -14 -44 4 3 8 1 20 -5 27 -8 9 -6 14 7 19 15 6 15 9 3
17 -10 7 -11 12 -4 15 6 3 9 16 6 29 -5 27 17 55 42 55 9 0 16 5 16 10 0 13
17 13 25 0z m-2541 -23 c13 -9 35 -17 48 -19 14 -2 47 -18 74 -36 43 -29 45
-32 19 -26 -30 7 -175 63 -230 89 l-30 15 47 -4 c26 -2 58 -10 72 -19z m2729
-3 c-8 -21 -23 -17 -23 6 0 13 5 18 14 14 8 -3 12 -12 9 -20z m-119 -9 c-4 -8
-10 -12 -15 -9 -11 6 -2 24 11 24 5 0 7 -7 4 -15z m47 -23 c8 2 14 -3 14 -11
0 -8 -10 -15 -22 -16 -18 -1 -23 4 -23 24 0 18 3 22 9 13 4 -7 14 -12 22 -10z
m-2671 -64 c0 -13 -32 -6 -37 9 -3 7 3 9 16 6 12 -3 21 -10 21 -15z m40 0 c0
-6 -6 -5 -15 2 -8 7 -15 14 -15 16 0 2 7 1 15 -2 8 -4 15 -11 15 -16z m-95 -9
c14 -14 -36 -10 -70 7 l-30 14 45 -5 c25 -4 49 -10 55 -16z m541 -47 c3 -26
10 -54 15 -63 4 -8 10 -42 13 -75 3 -32 8 -81 11 -109 l5 -50 -15 39 c-8 21
-20 68 -26 105 -6 36 -20 88 -32 114 -16 39 -18 52 -8 73 15 34 29 22 37 -34z
m-421 -152 c10 -16 -1 -12 -42 16 -53 36 -54 40 -6 15 23 -11 44 -25 48 -31z
m139 15 c3 -8 1 -15 -4 -15 -6 0 -10 7 -10 15 0 8 2 15 4 15 2 0 6 -7 10 -15z
m2761 -39 c31 -14 44 -36 33 -62 -2 -3 5 -10 15 -15 9 -6 17 -18 17 -27 0 -15
-2 -15 -11 -2 -8 11 -9 7 -4 -17 6 -28 4 -33 -12 -32 -10 0 -13 3 -5 6 16 6
15 23 -2 23 -7 0 -21 11 -30 25 -12 19 -21 23 -34 17 -9 -5 -28 -7 -41 -6 -22
1 -23 0 -8 -11 9 -7 17 -15 17 -19 0 -15 -30 -37 -41 -30 -7 4 -9 3 -5 -4 3
-6 2 -13 -4 -17 -5 -3 -10 -15 -10 -26 0 -10 -4 -19 -10 -19 -5 0 -10 -8 -11
-17 0 -15 -2 -15 -9 2 -6 14 -3 24 9 33 14 12 14 13 -4 11 -11 -2 -26 0 -32 4
-8 5 -13 3 -13 -3 0 -6 -5 -8 -10 -5 -6 4 -5 12 4 21 9 8 13 22 10 32 -2 9 2
4 9 -12 8 -16 17 -25 20 -19 3 5 2 15 -4 23 -5 8 -9 20 -9 25 0 6 4 4 9 -4 12
-18 31 -5 32 22 1 17 2 18 6 5 2 -10 9 -18 15 -18 5 0 7 7 4 16 -3 9 -6 22 -6
29 0 8 -7 11 -21 8 -16 -5 -19 -11 -14 -30 4 -17 2 -23 -6 -18 -6 5 -9 19 -5
37 3 16 2 27 -3 23 -5 -3 -7 4 -4 14 5 21 30 22 43 2 6 -10 11 -8 22 8 11 16
42 35 66 40 1 1 18 -6 37 -13z m-196 -54 c-18 -35 -35 -53 -43 -45 -3 4 -6 1
-6 -6 0 -9 -4 -8 -15 3 -8 8 -15 21 -14 28 0 10 2 10 6 0 7 -18 23 -4 23 20 0
16 -3 18 -13 9 -13 -10 -27 -6 -27 8 0 11 70 8 71 -3 0 -6 5 0 11 14 7 16 12
20 15 12 3 -8 -1 -26 -8 -40z m-2537 16 c-7 -7 -12 -8 -12 -2 0 14 12 26 19
19 2 -3 -1 -11 -7 -17z m2558 -32 c0 -3 -4 -8 -10 -11 -5 -3 -10 -1 -10 4 0 6
5 11 10 11 6 0 10 -2 10 -4z m152 -38 c-7 -7 -12 -20 -12 -29 0 -30 -15 -29
-16 2 -1 18 5 30 15 32 9 3 18 5 21 6 2 0 -1 -4 -8 -11z m-2732 -84 c0 -2 -7
-4 -15 -4 -8 0 -15 4 -15 10 0 5 7 7 15 4 8 -4 15 -8 15 -10z m2800 -10 c-1
-4 4 -11 12 -15 10 -7 10 -9 0 -9 -7 0 -10 -5 -7 -10 4 -6 2 -16 -4 -23 -5 -7
-9 -37 -9 -67 1 -33 -3 -55 -10 -58 -7 -2 -12 -9 -12 -16 0 -6 -9 -12 -20 -12
-11 0 -20 4 -20 8 0 4 4 8 8 8 5 0 7 19 6 42 -1 23 3 53 9 66 9 18 8 25 -4 33
-11 7 -8 9 11 9 20 0 22 2 10 10 -10 6 -11 10 -2 10 6 0 11 3 10 8 -3 13 16
46 20 34 2 -6 3 -14 2 -18z m-250 -13 c0 -6 -5 -13 -10 -16 -12 -7 -8 -45 8
-86 9 -23 8 -26 -7 -22 -9 2 -17 12 -18 21 -1 9 -3 34 -5 55 -3 29 -1 37 11
37 14 0 14 1 1 10 -13 8 -12 10 3 10 9 0 17 -4 17 -9z m299 -301 c-12 -16 -26
-27 -30 -24 -8 5 30 51 44 53 4 1 -2 -12 -14 -29z m124 3 c-9 -26 -34 -53 -50
-53 -20 0 -16 7 20 40 38 35 38 35 30 13z m-25 -108 c-9 -9 -68 -13 -62 -4 3
5 19 9 36 9 17 0 29 -2 26 -5z m202 -5 c0 -5 -5 -10 -11 -10 -5 0 -7 5 -4 10
3 6 8 10 11 10 2 0 4 -4 4 -10z m-2969 -170 c6 -41 19 -105 30 -142 11 -36 24
-93 30 -125 6 -32 14 -71 19 -88 10 -33 71 -346 91 -465 7 -41 13 -133 13
-205 1 -112 -2 -135 -19 -168 -17 -33 -18 -39 -5 -47 8 -5 10 -10 4 -10 -6 0
-17 -11 -24 -25 -7 -13 -21 -27 -32 -31 -10 -3 -18 -12 -18 -21 0 -9 -14 0
-37 24 -39 39 -39 56 3 65 15 4 11 9 -21 24 -39 18 -40 18 -12 22 15 2 25 8
21 13 -3 5 -10 7 -15 3 -6 -3 -17 2 -24 12 -20 26 -18 33 5 27 16 -4 20 0 20
21 0 14 4 26 8 26 10 0 8 42 -2 58 -4 7 -12 10 -17 7 -5 -4 -9 3 -9 13 0 16 5
19 23 14 21 -5 21 -5 4 12 -11 12 -15 25 -11 39 5 16 3 19 -10 14 -9 -4 -16
-2 -16 3 0 10 13 14 40 11 10 -1 8 4 -7 17 -14 13 -18 23 -13 33 5 8 7 24 3
36 -3 13 -1 23 6 23 6 0 8 11 5 30 -5 21 -3 30 6 30 9 0 9 4 -1 17 -12 15 -12
16 5 10 17 -7 17 -6 4 15 -14 21 -20 44 -30 103 -2 14 2 20 14 19 16 -2 16 0
0 24 -17 26 -24 92 -9 92 4 0 7 12 7 26 0 17 4 23 13 18 6 -4 4 2 -7 14 -11
12 -16 28 -12 38 3 9 1 23 -5 30 -8 10 -8 14 0 14 6 0 11 5 11 11 0 5 -5 7
-11 4 -6 -4 -5 3 3 14 8 14 9 24 3 29 -10 7 -14 23 -17 85 -1 20 -5 37 -9 37
-3 0 -7 19 -7 43 0 23 -3 58 -6 77 -2 19 -7 58 -10 85 -3 28 -8 64 -11 80 -3
19 1 13 11 -15 8 -25 19 -79 25 -120z m359 -54 c0 -32 -19 -5 -25 34 l-6 35
15 -25 c8 -14 15 -34 16 -44z m20 -56 c14 -25 21 -80 11 -80 -4 0 -12 23 -17
50 -12 55 -10 60 6 30z m-4309 -83 c-6 -8 -8 -17 -4 -20 3 -4 -1 -7 -9 -7 -11
0 -14 6 -11 20 3 11 12 20 20 20 12 0 13 -3 4 -13z m4349 -47 c-1 -12 -4 -11
-15 4 -8 10 -12 23 -8 29 7 11 23 -12 23 -33z m-4370 6 c0 -3 -4 -8 -10 -11
-5 -3 -10 -1 -10 4 0 6 5 11 10 11 6 0 10 -2 10 -4z m4388 -75 c-1 -15 2 -32
6 -40 10 -16 20 -108 11 -99 -9 8 -25 69 -34 129 -6 37 -4 46 6 42 7 -3 12
-17 11 -32z m-4444 -26 c3 -8 1 -15 -4 -15 -5 0 -9 -10 -7 -21 1 -12 -4 -24
-10 -26 -8 -3 -13 5 -13 21 0 14 4 26 10 26 5 0 7 7 4 15 -4 8 -2 15 4 15 5 0
12 -7 16 -15z m4841 5 c-3 -5 -11 -10 -16 -10 -6 0 -7 5 -4 10 3 6 11 10 16
10 6 0 7 -4 4 -10z m135 -53 c-27 -25 -269 -116 -250 -94 17 19 83 56 91 52 5
-4 9 -1 9 5 0 6 5 8 10 5 6 -4 23 1 38 11 23 15 64 28 107 33 5 0 3 -5 -5 -12z
m-5055 -37 c3 -5 1 -10 -4 -10 -6 0 -11 5 -11 10 0 6 2 10 4 10 3 0 8 -4 11
-10z m35 -69 c0 -5 -7 -17 -16 -26 -21 -21 -51 -1 -33 21 13 16 49 19 49 5z
m4925 -1 c-3 -5 -11 -10 -16 -10 -6 0 -7 5 -4 10 3 6 11 10 16 10 6 0 7 -4 4
-10z m41 -9 c-9 -8 -18 -12 -22 -9 -9 10 3 25 21 25 14 0 14 -2 1 -16z m115 5
c-13 -15 -79 -27 -87 -14 -5 8 47 26 80 27 15 1 16 -2 7 -13z m-5141 -76 c0
-5 -2 -10 -4 -10 -3 0 -8 5 -11 10 -3 6 -1 10 4 10 6 0 11 -4 11 -10z m5029
-83 c-28 -23 -100 -67 -95 -58 9 14 77 60 90 60 5 1 7 -1 5 -2z m-227 -49 c-7
-7 -12 -8 -12 -2 0 14 12 26 19 19 2 -3 -1 -11 -7 -17z m-4877 -8 c3 -5 1 -10
-4 -10 -6 0 -11 5 -11 10 0 6 2 10 4 10 3 0 8 -4 11 -10z m4852 -22 c-3 -8 -6
-5 -6 6 -1 11 2 17 5 13 3 -3 4 -12 1 -19z m-2 -28 c3 -5 1 -10 -4 -10 -6 0
-11 5 -11 10 0 6 2 10 4 10 3 0 8 -4 11 -10z m-4880 -21 c11 -17 -1 -21 -15
-4 -8 9 -8 15 -2 15 6 0 14 -5 17 -11z m-5 -122 c0 -6 -9 -2 -20 8 -11 10 -20
23 -20 28 0 6 9 2 20 -8 11 -10 20 -23 20 -28z m4925 -17 c-3 -5 -11 -10 -16
-10 -6 0 -7 5 -4 10 3 6 11 10 16 10 6 0 7 -4 4 -10z m-4965 -62 c0 -14 -19 1
-31 25 -12 22 -12 22 10 3 11 -11 21 -23 21 -28z m-39 -50 c11 -21 11 -22 -4
-9 -10 7 -17 17 -17 22 0 15 9 10 21 -13z m0 -35 c13 -16 12 -17 -3 -4 -10 7
-18 15 -18 17 0 8 8 3 21 -13z m4326 -5 c-3 -8 -6 -5 -6 6 -1 11 2 17 5 13 3
-3 4 -12 1 -19z m-4327 -40 c0 -14 -19 1 -31 25 -12 22 -12 22 10 3 11 -11 21
-23 21 -28z m-11 -38 c28 -54 26 -62 -5 -22 -14 18 -29 30 -33 27 -5 -2 -6 7
-3 20 5 31 14 26 41 -25z m3575 -227 c-11 -45 -41 -135 -59 -176 -23 -55 -72
-120 -78 -105 -3 7 -6 2 -7 -12 l-2 -25 -8 25 -8 25 -1 -25 c-2 -34 -16 -11
-37 59 -8 30 -19 50 -22 45 -9 -14 -42 -26 -39 -14 1 5 -7 16 -18 24 -20 16
-20 16 2 35 12 10 19 21 16 25 -4 3 -1 6 5 6 7 0 12 9 12 20 0 11 6 20 14 20
8 0 22 7 30 16 9 8 16 12 16 9 0 -4 14 5 31 19 17 14 39 27 50 27 27 2 33 3
47 12 7 5 12 3 12 -4 0 -8 7 -6 23 4 29 21 28 21 21 -10z m1268 -39 c-5 -22
-8 -47 -6 -57 1 -9 -1 -17 -4 -17 -7 0 -9 -13 -13 -122 -1 -38 -5 -68 -9 -68
-3 0 -6 -8 -6 -17 -1 -28 -14 -94 -20 -105 -3 -5 0 -15 6 -23 10 -12 10 -15
-1 -16 -8 0 -5 -4 6 -8 19 -8 19 -8 -4 -21 -18 -9 -20 -14 -10 -20 9 -6 10
-14 3 -30 -7 -15 -6 -41 1 -79 10 -50 9 -59 -9 -91 -15 -26 -16 -32 -4 -22 13
10 17 10 21 -1 3 -8 1 -20 -4 -28 -5 -8 -9 -28 -9 -46 0 -17 -5 -35 -10 -38
-8 -5 -7 -12 2 -23 11 -13 10 -15 -4 -9 -12 4 -15 2 -11 -9 3 -7 10 -14 15
-14 6 0 8 -11 6 -25 -3 -14 -1 -25 4 -25 6 0 7 -11 4 -26 -4 -15 -2 -32 5 -40
6 -8 7 -14 3 -14 -5 0 -15 -9 -22 -21 -8 -12 -9 -18 -3 -15 6 4 19 2 28 -4 17
-11 17 -11 0 -6 -14 5 -17 2 -12 -13 3 -11 -1 -25 -10 -34 -21 -21 -19 -30 5
-22 14 4 20 2 20 -9 0 -8 -9 -18 -21 -21 -20 -7 -21 -32 0 -28 6 2 11 -2 11
-7 0 -6 -8 -10 -17 -10 -16 -1 -16 -2 -3 -13 8 -7 15 -21 15 -32 0 -14 6 -19
18 -17 17 3 17 2 2 -22 -11 -16 -23 -23 -33 -19 -14 4 -14 3 -3 -5 8 -6 20 -8
28 -5 9 4 11 0 7 -11 -3 -8 -9 -15 -12 -15 -18 2 -51 -14 -46 -23 3 -5 11 -7
18 -5 6 3 17 -1 24 -9 9 -10 9 -15 -5 -22 -10 -6 -14 -16 -10 -26 5 -11 3 -15
-4 -10 -7 4 -20 -4 -30 -17 -10 -13 -19 -18 -19 -11 0 7 -19 32 -42 55 -30 31
-37 43 -26 45 14 3 13 8 -5 41 -20 34 -22 52 -21 172 1 146 6 187 65 479 52
264 63 313 87 400 12 41 26 109 31 150 12 82 30 155 37 147 3 -2 1 -22 -4 -43z
m3738 1 c0 -12 -19 -12 -23 0 -4 9 -1 12 9 8 7 -3 14 -7 14 -8z m-4949 -12 c1
-10 3 -33 5 -52 3 -40 23 -83 36 -75 4 3 6 9 3 14 -3 4 2 11 12 14 18 7 56
-22 47 -36 -3 -5 6 -21 20 -35 14 -14 23 -30 20 -35 -3 -5 0 -15 6 -23 6 -8 9
-18 6 -24 -3 -5 1 -12 10 -15 8 -3 12 -11 9 -17 -4 -5 0 -18 9 -28 9 -10 20
-36 23 -57 3 -22 11 -45 17 -53 6 -8 11 -26 12 -40 0 -14 9 -42 19 -61 11 -19
18 -40 17 -47 -1 -6 2 -14 7 -17 6 -4 6 -18 1 -37 -8 -26 -7 -30 6 -25 10 4
13 2 7 -7 -4 -6 -8 -23 -8 -37 0 -14 -8 -36 -18 -50 -19 -28 -23 -50 -5 -32 7
7 15 12 19 12 11 0 3 -91 -8 -98 -5 -4 -15 -17 -21 -29 -9 -16 -9 -22 1 -26 7
-2 3 -8 -11 -16 -29 -15 -29 -31 1 -24 19 4 20 3 7 -9 -22 -20 -42 -58 -30
-58 19 0 10 -17 -16 -29 -32 -14 -46 -5 -21 14 12 9 15 15 7 20 -8 5 -6 14 5
32 10 14 12 23 7 19 -17 -10 -24 11 -29 81 -3 50 0 69 12 83 15 17 15 18 -2
16 -13 -1 -19 7 -21 29 -2 17 -8 34 -13 39 -5 6 -9 20 -9 32 0 13 -4 25 -9 29
-5 3 -17 27 -26 54 -8 26 -24 65 -35 86 -11 21 -17 42 -14 46 3 5 0 9 -5 9 -6
0 -11 7 -11 15 0 8 -3 15 -8 15 -15 0 -55 87 -49 109 8 32 -21 27 -54 -10 -32
-36 -51 -32 -39 10 4 15 4 35 -1 42 -16 26 -9 58 42 178 48 115 67 143 70 104z
m-340 -330 c0 -105 -6 -197 -15 -246 -17 -87 -21 -97 -42 -97 -19 0 -18 -10 3
-25 49 -36 53 -368 6 -485 -3 -8 -7 -20 -8 -26 -3 -12 -64 -136 -86 -174 -23
-39 -52 -70 -65 -70 -7 0 -25 -12 -39 -26 -27 -27 -65 -26 -65 2 0 8 -5 14
-11 14 -8 0 -8 5 1 15 10 12 9 15 -6 16 -12 0 -14 3 -6 6 9 4 10 8 2 18 -6 8
-12 24 -14 37 -1 13 -6 29 -10 36 -4 7 -4 17 -1 22 3 6 1 10 -5 10 -7 0 -9 7
-6 16 3 8 2 12 -4 9 -6 -3 -10 1 -10 9 0 8 -7 22 -16 31 -17 17 -12 71 6 60 6
-3 7 1 4 9 -3 9 -1 16 5 16 6 0 11 5 11 11 0 5 -5 7 -10 4 -6 -3 -13 2 -17 12
-3 10 -13 22 -21 27 -12 7 -12 10 -1 17 12 7 11 9 -1 9 -14 0 -15 5 -11 78 1
7 6 10 12 6 7 -4 10 -1 7 7 -3 8 -1 24 3 37 7 17 5 22 -8 22 -13 0 -15 8 -10
42 3 23 13 45 21 50 22 13 20 24 -6 33 -20 6 -20 8 -5 12 9 2 15 8 12 13 -3 5
-1 11 5 15 5 3 10 19 10 35 0 18 8 34 22 44 17 12 19 18 9 30 -10 12 -8 15 16
19 26 4 26 5 7 11 -21 8 -21 8 7 39 15 17 26 34 23 39 -3 4 0 8 6 8 6 0 9 4 5
9 -3 6 4 15 15 21 11 6 18 16 14 21 -6 11 56 77 91 97 16 9 17 11 4 12 -18 0
-35 30 -18 30 15 0 70 60 56 61 -7 0 -2 5 11 11 12 6 22 16 22 22 0 6 13 20
29 31 16 10 27 23 25 27 -7 11 30 46 40 37 4 -4 8 -83 7 -176z m116 42 c9 -25
-4 -29 -17 -6 -7 15 -7 21 0 21 6 0 13 -7 17 -15z m5348 5 c3 -5 -1 -10 -10
-10 -9 0 -13 5 -10 10 3 6 8 10 10 10 2 0 7 -4 10 -10z m10 -30 c3 -5 -1 -10
-10 -10 -9 0 -13 5 -10 10 3 6 8 10 10 10 2 0 7 -4 10 -10z m70 -120 c-3 -5
-1 -11 5 -15 16 -10 12 -45 -6 -45 -11 0 -15 6 -11 20 3 10 1 20 -5 22 -5 2
-6 11 -3 21 4 9 11 14 16 11 5 -3 7 -9 4 -14z m75 -84 c0 -3 -4 -8 -10 -11 -5
-3 -10 -1 -10 4 0 6 5 11 10 11 6 0 10 -2 10 -4z m10 -88 c0 -17 -32 -21 -47
-5 -23 22 -8 39 22 25 14 -6 25 -15 25 -20z m10 -32 c0 -2 -7 -9 -15 -16 -13
-11 -14 -10 -9 4 5 14 24 23 24 12z m10 -26 c0 -5 -5 -10 -11 -10 -5 0 -7 5
-4 10 3 6 8 10 11 10 2 0 4 -4 4 -10z m70 -150 c0 -5 -4 -10 -10 -10 -5 0 -10
5 -10 10 0 6 5 10 10 10 6 0 10 -4 10 -10z m38 -62 c-2 -6 -10 -14 -16 -16 -7
-2 -10 2 -6 12 7 18 28 22 22 4z m22 -91 c0 -2 -10 -12 -22 -23 l-23 -19 19
23 c18 21 26 27 26 19z m-8200 -103 c0 -2 -13 2 -30 11 -16 9 -30 18 -30 21 0
2 14 -2 30 -11 17 -9 30 -18 30 -21z m8223 2 c-10 -14 -22 -26 -26 -26 -5 0 1
14 13 31 12 16 24 28 27 25 3 -2 -3 -16 -14 -30z m27 -66 c-8 -14 -8 -20 0
-20 6 0 8 -4 5 -10 -11 -18 -22 -11 -20 13 4 36 4 37 15 37 7 0 7 -6 0 -20z
m-8125 0 c3 -6 -1 -7 -9 -4 -18 7 -21 14 -7 14 6 0 13 -4 16 -10z m8143 -59
c-7 -12 -16 -21 -21 -21 -8 0 -2 14 16 38 16 20 20 6 5 -17z m0 -65 c-20 -32
-38 -46 -38 -31 0 15 54 88 57 78 2 -6 -6 -28 -19 -47z m-7890 -12 c-5 -5 -98
45 -98 52 0 2 23 -7 51 -22 28 -14 49 -27 47 -30z m102 -46 c0 -5 -9 -4 -20 2
-11 6 -20 12 -20 14 0 2 9 2 20 -1 11 -3 20 -9 20 -15z m255 -126 c-3 -3 -11
0 -18 7 -9 10 -8 11 6 5 10 -3 15 -9 12 -12z m3993 -25 c6 3 12 0 12 -6 0 -6
15 -11 33 -11 18 0 42 -8 53 -17 10 -10 37 -27 59 -39 25 -13 39 -27 37 -36
-1 -9 9 -25 23 -36 14 -11 25 -25 25 -31 0 -15 -63 -40 -71 -28 -4 5 -14 -15
-24 -44 -21 -64 -35 -83 -36 -49 -1 23 -2 22 -9 -5 -7 -28 -8 -29 -10 -5 -1
14 -4 19 -7 12 -3 -9 -16 2 -35 30 -39 58 -56 97 -83 195 l-23 82 21 -8 c12
-5 28 -6 35 -4z m-39 -161 c49 -120 60 -164 44 -180 -11 -11 -10 -60 2 -68 6
-5 3 -8 -6 -8 -9 0 -28 12 -43 27 -36 36 -58 39 -50 7 4 -16 -3 -39 -22 -71
-43 -72 -83 -161 -77 -167 4 -3 2 -6 -4 -6 -6 0 -14 -12 -18 -27 -3 -16 -12
-41 -19 -58 -31 -71 -36 -87 -36 -110 0 -19 -5 -25 -22 -25 -22 -1 -22 -1 -5
-14 14 -11 18 -26 16 -62 -4 -107 -13 -120 -58 -83 -21 17 -22 22 -10 30 10 6
10 9 2 9 -7 0 -13 5 -13 12 0 7 -12 25 -27 40 -15 15 -22 28 -16 28 7 0 10 14
8 35 -3 37 1 37 39 6 17 -14 17 -11 -3 16 -12 18 -26 35 -30 37 -4 3 -6 20 -4
38 8 78 8 98 0 98 -5 0 -4 7 3 15 6 8 9 19 5 25 -3 5 -1 10 4 10 6 0 11 6 11
14 0 7 6 19 14 25 8 7 13 24 12 39 -2 15 2 36 9 47 7 11 16 39 20 63 4 24 13
46 21 49 9 3 12 13 9 23 -3 11 0 20 10 23 8 4 12 13 9 22 -4 8 -1 15 6 15 7 0
10 8 7 20 -3 13 2 25 14 33 10 8 16 17 12 20 -3 4 -1 7 6 7 7 0 10 4 6 9 -7
12 22 41 41 41 8 0 14 -7 14 -15 0 -8 4 -15 8 -15 17 0 32 26 32 56 0 43 11
94 20 94 4 0 31 -56 59 -124z m-2572 78 c-3 -3 -12 -4 -19 -1 -8 3 -5 6 6 6
11 1 17 -2 13 -5z m-1101 -19 c10 -8 15 -14 9 -14 -5 0 -19 6 -29 14 -11 8
-15 15 -10 15 6 0 19 -7 30 -15z m175 -79 c30 -14 47 -25 39 -25 -14 0 -112
48 -99 49 4 0 31 -11 60 -24z m84 -36 c3 -5 2 -10 -4 -10 -5 0 -13 5 -16 10
-3 6 -2 10 4 10 5 0 13 -4 16 -10z m3715 -5 c7 -8 17 -12 24 -8 7 4 7 1 -1 -7
-10 -10 -4 -21 29 -52 22 -21 45 -38 50 -38 5 0 6 -4 3 -10 -6 -10 3 -24 39
-60 20 -20 20 -20 0 -35 -15 -11 -16 -14 -3 -15 18 0 90 -64 93 -82 1 -8 11
-28 23 -44 13 -17 20 -34 16 -37 -3 -4 2 -9 11 -13 9 -3 16 -12 16 -20 0 -8 8
-14 18 -15 13 0 12 -3 -5 -11 -31 -15 -29 -32 2 -26 26 5 35 -6 13 -15 -9 -3
-6 -10 10 -22 13 -10 22 -27 22 -43 0 -46 11 -74 27 -68 9 4 13 1 11 -6 -3 -7
-10 -14 -16 -14 -7 -1 -17 -2 -23 -3 -6 0 -1 -9 11 -19 26 -21 37 -90 14 -99
-10 -4 -11 -10 -3 -24 5 -11 7 -23 4 -28 -3 -5 0 -11 5 -13 17 -5 13 -78 -4
-78 -6 0 -6 -4 1 -11 8 -8 6 -16 -9 -31 -20 -20 -20 -28 -2 -102 5 -21 4 -27
-5 -22 -6 4 -11 1 -11 -6 0 -9 -3 -9 -10 2 -8 11 -9 7 -4 -14 6 -25 5 -28 -11
-22 -15 5 -16 4 -5 -9 10 -12 10 -15 0 -15 -7 0 -10 -7 -7 -15 4 -8 2 -17 -3
-20 -6 -4 -10 -22 -10 -41 0 -19 -5 -34 -11 -34 -6 0 -9 -6 -6 -12 2 -7 -2
-28 -9 -45 -14 -36 -12 -38 17 -23 10 6 19 8 19 6 0 -3 -14 -13 -31 -22 -17
-8 -28 -11 -25 -5 4 6 -1 11 -11 11 -10 1 -42 20 -72 43 -43 34 -64 61 -103
134 -26 51 -50 100 -51 110 -2 10 -9 31 -16 47 -16 41 -32 167 -30 251 1 109
18 186 46 213 21 19 19 27 -8 24 -11 -2 -28 50 -39 118 -8 52 -15 314 -11 393
1 21 14 22 31 2z m-127 -125 c-5 -19 -23 -29 -23 -12 0 7 20 32 26 32 1 0 0
-9 -3 -20z m-528 -360 c3 -5 1 -10 -4 -10 -6 0 -11 5 -11 10 0 6 2 10 4 10 3
0 8 -4 11 -10z m3430 -210 c-3 -5 -12 -10 -18 -10 -7 0 -6 4 3 10 19 12 23 12
15 0z m-3336 -133 c7 -9 8 -18 2 -21 -13 -8 -41 4 -41 17 0 6 -8 19 -17 30
-18 19 -18 20 13 4 17 -9 36 -22 43 -30z m5 -43 c9 -3 16 -10 16 -15 0 -14
-24 -11 -46 6 -16 12 -17 14 -2 15 9 0 23 -3 32 -6z m3016 2 c0 -7 -72 -47
-77 -43 -2 3 11 14 29 25 33 20 48 26 48 18z m-405 -219 c-23 -16 -55 -28 -55
-22 0 6 53 34 65 35 5 0 1 -6 -10 -13z m-95 -47 c-19 -11 -39 -19 -45 -19 -5
0 6 8 25 19 19 11 40 19 45 19 6 0 -6 -8 -25 -19z m-440 -210 c0 -5 -5 -10
-11 -10 -5 0 -7 5 -4 10 3 6 8 10 11 10 2 0 4 -4 4 -10z m-1213 -36 c-3 -3
-12 -4 -19 -1 -8 3 -5 6 6 6 11 1 17 -2 13 -5z m1088 -24 c-3 -5 -14 -10 -23
-10 -15 0 -15 2 -2 10 20 13 33 13 25 0z m-155 -70 c-8 -5 -19 -10 -25 -10 -5
0 -3 5 5 10 8 5 20 10 25 10 6 0 3 -5 -5 -10z m-40 -16 c0 -7 -66 -34 -82 -34
-7 0 5 9 27 19 43 21 55 24 55 15z"/>
<path d="M5072 8750 c0 -19 2 -27 5 -17 2 9 2 25 0 35 -3 9 -5 1 -5 -18z"/>
<path d="M4636 8052 c-2 -4 4 -8 14 -8 10 0 16 4 14 8 -3 4 -9 8 -14 8 -5 0
-11 -4 -14 -8z"/>
<path d="M4710 7920 c0 -6 7 -10 15 -10 8 0 15 2 15 4 0 2 -7 6 -15 10 -8 3
-15 1 -15 -4z"/>
<path d="M8721 7244 c0 -11 3 -14 6 -6 3 7 2 16 -1 19 -3 4 -6 -2 -5 -13z"/>
<path d="M8835 6841 c3 -5 1 -12 -5 -16 -5 -3 -10 -14 -9 -23 0 -12 3 -11 9 6
5 12 14 22 20 22 5 0 10 5 10 10 0 6 -7 10 -16 10 -8 0 -13 -4 -9 -9z"/>
<path d="M9137 6526 c-4 -10 -1 -13 8 -9 8 3 12 9 9 14 -7 12 -11 11 -17 -5z"/>
<path d="M7810 2605 c0 -5 5 -17 10 -25 5 -8 10 -10 10 -5 0 6 -5 17 -10 25
-5 8 -10 11 -10 5z"/>
<path d="M8555 1630 c3 -5 8 -10 11 -10 2 0 4 5 4 10 0 6 -5 10 -11 10 -5 0
-7 -4 -4 -10z"/>
<path d="M2242 4450 c0 -14 2 -19 5 -12 2 6 2 18 0 25 -3 6 -5 1 -5 -13z"/>
<path d="M11545 2970 c-3 -5 -1 -10 4 -10 6 0 11 5 11 10 0 6 -2 10 -4 10 -3
0 -8 -4 -11 -10z"/>
<path d="M11552 2925 c0 -16 2 -22 5 -12 2 9 2 23 0 30 -3 6 -5 -1 -5 -18z"/>
</g>
</svg>
